<svg width="440" height="3" viewBox="0 0 440 3" fill="none" xmlns="http://www.w3.org/2000/svg">
<path d="M0.5575 2.192V0.688H5.6775V2.192H0.5575ZM7.91688 2.192V0.688H13.0369V2.192H7.91688ZM15.2763 2.192V0.688H20.3963V2.192H15.2763ZM22.6356 2.192V0.688H27.7556V2.192H22.6356ZM29.995 2.192V0.688H35.115V2.192H29.995ZM37.3544 2.192V0.688H42.4744V2.192H37.3544ZM44.7138 2.192V0.688H49.8338V2.192H44.7138ZM52.0731 2.192V0.688H57.1931V2.192H52.0731ZM59.4325 2.192V0.688H64.5525V2.192H59.4325ZM66.7919 2.192V0.688H71.9119V2.192H66.7919ZM74.1513 2.192V0.688H79.2713V2.192H74.1513ZM81.5106 2.192V0.688H86.6306V2.192H81.5106ZM88.87 2.192V0.688H93.99V2.192H88.87ZM96.2294 2.192V0.688H101.349V2.192H96.2294ZM103.589 2.192V0.688H108.709V2.192H103.589ZM110.948 2.192V0.688H116.068V2.192H110.948ZM118.308 2.192V0.688H123.428V2.192H118.308ZM125.667 2.192V0.688H130.787V2.192H125.667ZM133.026 2.192V0.688H138.146V2.192H133.026ZM140.386 2.192V0.688H145.506V2.192H140.386ZM147.745 2.192V0.688H152.865V2.192H147.745ZM155.104 2.192V0.688H160.224V2.192H155.104ZM162.464 2.192V0.688H167.584V2.192H162.464ZM169.823 2.192V0.688H174.943V2.192H169.823ZM177.183 2.192V0.688H182.303V2.192H177.183ZM184.542 2.192V0.688H189.662V2.192H184.542ZM191.901 2.192V0.688H197.021V2.192H191.901ZM199.261 2.192V0.688H204.381V2.192H199.261ZM206.62 2.192V0.688H211.74V2.192H206.62ZM213.979 2.192V0.688H219.099V2.192H213.979ZM221.339 2.192V0.688H226.459V2.192H221.339ZM228.698 2.192V0.688H233.818V2.192H228.698ZM236.058 2.192V0.688H241.178V2.192H236.058ZM243.417 2.192V0.688H248.537V2.192H243.417ZM250.776 2.192V0.688H255.896V2.192H250.776ZM258.136 2.192V0.688H263.256V2.192H258.136ZM265.495 2.192V0.688H270.615V2.192H265.495ZM272.854 2.192V0.688H277.974V2.192H272.854ZM280.214 2.192V0.688H285.334V2.192H280.214ZM287.573 2.192V0.688H292.693V2.192H287.573ZM294.933 2.192V0.688H300.053V2.192H294.933ZM302.292 2.192V0.688H307.412V2.192H302.292ZM309.651 2.192V0.688H314.771V2.192H309.651ZM317.011 2.192V0.688H322.131V2.192H317.011ZM324.37 2.192V0.688H329.49V2.192H324.37ZM331.729 2.192V0.688H336.849V2.192H331.729ZM339.089 2.192V0.688H344.209V2.192H339.089ZM346.448 2.192V0.688H351.568V2.192H346.448ZM353.808 2.192V0.688H358.928V2.192H353.808ZM361.167 2.192V0.688H366.287V2.192H361.167ZM368.526 2.192V0.688H373.646V2.192H368.526ZM375.886 2.192V0.688H381.006V2.192H375.886ZM383.245 2.192V0.688H388.365V2.192H383.245ZM390.604 2.192V0.688H395.724V2.192H390.604ZM397.964 2.192V0.688H403.084V2.192H397.964ZM405.323 2.192V0.688H410.443V2.192H405.323ZM412.683 2.192V0.688H417.803V2.192H412.683ZM420.042 2.192V0.688H425.162V2.192H420.042ZM427.401 2.192V0.688H432.521V2.192H427.401ZM434.761 2.192V0.688H439.881V2.192H434.761Z" fill="#F5F5F5"/>
</svg>
