<svg xmlns="http://www.w3.org/2000/svg" width="22" height="34" viewBox="0 0 22 34" fill="none">
  <path class="fire" d="M10.2045 33.9994C3.51516 33.9994 0.631636 29.0203 0.054821 21.6289C-0.411112 15.657 2.24616 13.4211 2.24616 13.4211C1.05445 15.8327 1.47726 19.4117 3.0537 19.8786C4.38206 20.2718 5.05296 18.7118 4.87319 16.9348C4.70911 15.3097 3.40371 12.8567 3.59188 10.1923C3.82261 6.92444 6.89821 3.81241 7.78583 3.54325C7.27342 4.65841 6.59076 8.40282 9.23067 10.6071C9.23067 9.54405 8.7821 2.64568 13.2034 0C12.4088 1.34862 12.248 3.37155 12.2553 3.94217C12.3192 8.94737 17.7401 11.359 18.5717 17.6567C19.1172 21.787 17.0832 22.4393 17.0832 22.4393C18.4799 21.9208 19.5658 20.5008 19.7584 18.4767C20.0149 15.7777 19.041 14.7827 19.041 14.7827C20.7132 16.2866 22.3244 18.4268 21.9436 23.8593C21.5465 29.5257 16.9202 33.9994 10.2051 33.9994H10.2045Z" fill="#FF6425"/>
  <path class="fire" d="M12.6266 13.1492C13.0113 14.4717 12.3572 20.8516 8.43602 21.0851C7.35967 18.5952 8.24394 16.8448 9.01284 14.8219C7.93649 15.7943 5.70931 17.7611 5.74515 21.2794C5.78379 25.0527 6.8215 26.998 6.8215 26.998C6.2066 26.8422 3.78453 25.5588 3.51517 23.108C3.20772 27.0757 4.97625 32.9371 9.23068 34.0001C13.559 33.5978 16.7018 31.3935 17.394 25.3253C16.3177 26.8422 14.5923 28.0826 12.5885 28.2815C13.9012 26.7668 14.9932 24.2855 15.1646 21.0851C15.3953 16.7672 12.6272 13.1492 12.6272 13.1492H12.6266Z" fill="#FFA724"/>
  <path class="fire" d="M12.2805 21.1235C12.8954 23.4967 12.7179 24.8577 10.9998 26.4138C9.28165 27.9698 9.23349 30.2199 9.99287 30.8483C10.8385 31.5487 12.5902 31.1878 12.9212 29.6816C13.0685 31.432 12.2615 33.2215 9.35893 33.9717C8.32066 33.2022 6.68654 31.1016 7.58984 28.4758C8.32626 26.3361 11.2613 24.7846 11.9339 23.5743C12.453 22.6405 12.28 21.1235 12.28 21.1235H12.2805Z" fill="#FFF18B"/>
</svg>
