<svg width="128" height="127" viewBox="0 0 128 127" fill="none" xmlns="http://www.w3.org/2000/svg">
<path opacity="0.05" d="M113.271 0L113.007 0.0192071C112.755 1.17212 112.897 2.59432 113.433 4.28582L118.573 18.0603C120.988 27.7062 122.31 33.6176 122.539 35.7946C123.908 43.0671 123.907 52.6855 122.537 64.6498C120.781 73.7497 117.196 82.048 111.783 89.5447C109.712 92.8056 105.962 97.4454 100.534 103.464C97.9376 105.702 95.0956 107.85 92.0078 109.907C75.4154 120.938 58.6768 125.112 41.7922 122.43C31.5366 120.582 24.0766 118.124 19.4122 115.057C11.8137 110.104 6.89865 104.209 4.66701 97.371C3.93391 95.0469 3.55228 92.6531 3.52213 90.1894L5.01622 80.2905L5.74235 77.8046C7.5243 72.5481 10.9463 67.2402 16.0082 61.8808C26.7293 50.3773 40.2318 44.2167 56.5156 43.3988C67.1391 43.1415 76.7632 48.2117 85.3879 58.6092C90.542 65.8844 90.0417 74.4308 83.8871 84.2485C78.6627 92.9661 70.9099 99.671 60.6286 104.363C52.2682 107.816 44.7039 108.511 37.9356 106.446C31.7957 104.891 27.8954 100.964 26.2348 94.6669C26.2525 90.9418 27.0721 87.2027 28.6937 83.4497C29.4324 81.8239 30.425 80.1867 31.6712 78.5381L37.7742 71.6348C38.018 71.1208 37.8204 70.9993 37.1814 71.2701C32.0614 73.6353 28.1834 77.7924 25.5473 83.7415C24.2296 86.571 23.3897 89.9254 23.0276 93.8049C22.9339 95.0662 23.3468 96.8246 24.2663 99.08C27.1591 106.52 34.6151 110.408 46.6342 110.743C57.3187 110.377 67.8741 105.746 78.3005 96.8471C82.9577 92.8794 86.6848 87.7734 89.4818 81.5291C91.9522 76.7339 92.9341 71.6126 92.4275 66.1649C91.0457 56.715 83.5652 48.7411 69.9858 42.2432C58.423 37.771 45.6181 39.0723 31.5712 46.147C26.1944 48.6147 20.2165 52.9816 13.6377 59.2478C9.29607 63.0438 5.71368 67.8541 2.89053 73.6787C0.111798 78.9228 -0.663485 86.3117 0.564657 95.8453C0.54461 96.7788 1.49111 99.3047 3.40416 103.423C5.19719 106.637 7.46256 109.53 10.2003 112.104C14.7819 117.148 22.1373 121.238 32.2665 124.375C41.3834 126.659 49.7173 127.452 57.2683 126.756C70.1347 126.122 83.9046 120.479 98.5782 109.827C107.649 102.594 115.811 91.7378 123.066 77.2588C127.584 68.4357 129 55.7918 127.311 39.3271C126.323 32.1038 124.359 24.1285 121.421 15.4012C117.937 5.44586 115.22 0.312128 113.271 0Z" fill="#F5F5F5"/>
</svg>
